<?xml version="1.0" encoding="utf-8" ?><svg xmlns="http://www.w3.org/2000/svg" xmlns:xlink="http://www.w3.org/1999/xlink" width="1024" height="1024" viewBox="0 0 1024 1024"><path fill="#FEAB4D" d="M823.449 587.744C848.071 587.729 872.402 588.039 897.026 587.519L897.007 671.575C897.031 683.224 898.27 700.413 896.933 711.241C891.315 710.92 884.483 711.057 878.75 711.043L803.057 711.142C803.082 670.333 802.588 628.748 803.115 587.999C809.894 588.026 816.673 587.941 823.449 587.744Z"/><path fill="#FEAB4D" d="M888.42 729.73L897.003 729.512C895.396 769.766 898.23 811.577 896.926 852.397C886.57 852.703 874.766 852.383 864.279 852.38C847.645 852.482 831.011 852.404 814.379 852.144C810.734 852.395 806.66 852.449 802.977 852.58C802.76 812.061 803.678 770.274 802.989 729.964C830.101 729.978 861.554 730.762 888.42 729.73Z"/><path fill="#D04127" d="M126.991 587.468C139.015 587.93 151.877 587.468 164 587.449C182.311 587.591 200.623 587.593 218.934 587.454C218.613 599.76 219.529 709.208 218.376 711.224C198.394 711.845 177.515 711.202 157.474 711.278C147.306 711.316 137.148 710.861 126.958 711.321C126.977 670.617 126.258 627.985 126.991 587.468Z"/><path fill="#FEAB4D" d="M666.733 222.802C712.51 244.712 739.349 262.563 775.884 296.901C771.348 302.72 761.402 312.009 756.044 317.37L723.03 350.834C717.936 355.961 712.8 361.046 707.622 366.088C698.66 359.012 690.216 351.046 681.13 344.063C664.693 331.431 646.603 321.382 627.947 312.455C635.339 293.378 642.702 275.937 651.32 257.297C656.467 246.165 660.979 233.596 666.733 222.802Z"/><path fill="#D04127" d="M127.073 729.992L219.006 729.986C218.786 742.548 219.488 755.354 219.522 768.003C219.631 796.093 219.415 824.183 218.872 852.267C206.436 852.72 193.701 851.903 181.217 852.124C163.26 852.441 144.931 851.582 127.009 852.323C127.423 829.007 127.57 805.687 127.449 782.367C127.447 765.026 127.671 747.291 127.073 729.992Z"/><path fill="#FEAB4D" d="M866.761 434.926L867.384 435.104C870.597 438.041 874.434 450.872 875.956 455.489C888.782 494.382 894.78 528.54 897.064 569.191C869.998 568.511 840.848 569.043 813.625 569.051L802.642 569.045C801.252 539.93 791.93 503.071 781.173 476.008C788.723 470.58 813.116 460.4 822.266 455.971C836.52 449.07 852.28 441.152 866.761 434.926Z"/><path fill="#E86A2F" d="M354.672 223.812C354.831 223.849 354.996 223.863 355.147 223.921C358.928 225.371 391.024 299.452 396.085 310.772C392.673 312.652 388.85 314.561 385.334 316.24C359.505 328.581 336.967 345.636 315.982 365.136C311.894 361.311 307.393 356.529 303.414 352.474C285.455 333.478 267.157 314.805 248.528 296.465C280.598 263.39 314.084 244.499 354.672 223.812Z"/><path fill="#FEAB4D" d="M788.583 310.731C792.114 311.818 797.949 319.785 800.64 322.86C825.929 351.768 844.123 383.049 860.744 417.469C838.162 426.973 810.524 441.447 787.872 452.241C783.241 454.408 778.659 456.681 774.13 459.056C758.422 426.549 743.711 406.046 720.488 378.55C729.579 366.511 742.951 355.931 753.569 345.259C765.354 333.413 776.205 321.99 788.583 310.731Z"/><path fill="#D04127" d="M156.353 433.899C167.018 438.289 177.466 443.781 187.826 448.891C205.459 457.809 223.268 466.375 241.241 474.584C230.102 501.768 219.544 539.623 219.496 569.183L210.375 568.957C183.534 568.95 153.584 568.044 127.093 569.066C130.404 520.06 136.82 479.806 156.353 433.899Z"/><path fill="#D04127" d="M235.409 310.361C246.13 318.931 255.008 329.819 264.802 339.313C277.658 351.776 289.939 364.892 302.635 377.456C280.201 400.714 261.747 430.249 247.548 459.193C244.005 457.259 239.975 455.319 236.346 453.474C212.325 440.64 187.818 429.336 163.482 417.061C167.852 408.631 171.812 399.165 176.437 390.932C192.347 362.606 212.755 333.672 235.409 310.361Z"/><path fill="#E86A2F" d="M495.628 191.21C497.393 191.031 500.045 191.067 501.888 191.033C502.758 200.473 502.562 210.749 502.607 220.294C502.707 233.118 502.728 245.942 502.67 258.766C502.598 267.389 502.25 277.596 502.951 286.058C467.564 287.78 445.836 292.993 412.116 304.487C409.047 298.912 405.264 289.553 402.717 283.63C393.279 261.371 383.712 238.33 373.938 216.265C378.338 213.763 387.754 210.411 392.806 208.737C426.116 197.706 460.777 193.482 495.628 191.21Z"/><path fill="#E86A2F" d="M520.957 190.944C528.841 192.202 542.403 191.569 551.839 192.683C584.09 196.49 619.065 203.014 648.997 215.815C642.577 234.45 630.559 259.454 622.774 278.131C619.015 286.567 615.271 296.476 611.764 305.128C579.194 293.223 555.538 288.365 520.564 286.212C521.603 255.182 521.017 222.16 520.957 190.944Z"/><path fill="#E86A2F" d="M263.483 736.019C289.474 735.305 319.82 735.932 346.013 735.991C345.397 756.836 345.691 778.832 345.709 799.761C345.723 816.51 345.275 835.649 346.039 852.18C336.451 852.815 323.356 852.525 313.609 852.502C297.056 852.522 280.503 852.394 263.952 852.12C264.22 813.419 264.064 774.716 263.483 736.019Z"/><path fill="#FEAB4D" d="M681.218 735.997C684.689 736.734 703.965 736.596 708.841 736.539C726.98 736.329 745.853 736.837 763.926 736.244C763.06 764.902 764.055 793.943 763.68 822.637C763.552 832.352 763.562 842.523 764.04 852.199C737.337 851.506 708.434 852.049 681.565 852.064C681.13 824.401 681.053 796.732 681.336 769.067C681.368 758.543 680.878 746.171 681.218 735.997Z"/><path fill="#FEAB4D" d="M682.126 601.562C708.307 601.6 737.993 602.168 763.928 601.231C763.057 629.705 764.055 658.57 763.68 687.082C763.551 696.932 763.566 707.252 764.041 717.064C737.081 716.547 708.429 717.051 681.364 717.084L681.488 641.053C681.477 633.379 680.914 608.213 682.126 601.562Z"/><path fill="#E86A2F" d="M269.174 601.776C277.714 601.297 288.09 601.499 296.751 601.516C313.175 601.569 329.599 601.731 346.021 602.001C345.671 606.367 345.527 610.848 345.572 615.227C345.918 648.967 345.23 682.929 345.954 716.642L338.875 716.532C324.329 716.246 309.24 716.419 294.678 716.453C285.483 716.475 273.038 716.215 264.064 716.899C263.464 701.838 263.93 689.251 263.958 674.299L263.91 601.992L269.174 601.776Z"/><path fill="#E86A2F" d="M300.137 465.229C310.137 471.219 319.716 478.443 329.295 485.097C342.016 493.932 354.736 502.681 367.279 511.771C364.77 517.396 361.545 522.878 359.113 528.7C351.559 546.779 347.987 563.415 346.032 582.761C342.453 583.042 335.919 582.802 332.125 582.781L263.969 583.032C265.323 539.589 278.51 502.38 300.137 465.229Z"/><path fill="#FEAB4D" d="M727.528 467.426C732.235 469.613 737.269 482.028 739.546 486.924C753.52 516.975 761.97 549.126 762.998 582.338C741.056 582.61 718.538 582.371 696.553 582.353C692.75 582.388 685.032 582.765 681.775 582.159C681.026 581.281 680.73 580.704 680.657 579.479C679.21 555.196 670.366 534.932 660.078 512.906C668.182 506.047 682.455 496.852 691.498 490.805C702.924 483.165 715.795 474.269 727.528 467.426Z"/><path fill="#FEAB4D" d="M637.676 378.289C642.655 380.313 648.646 384.187 653.243 387.187C678.759 404.187 700.793 425.904 718.16 451.171C714.125 453.341 705.447 459.506 701.355 462.247L668.72 484.044C662.549 488.102 656.419 492.223 650.332 496.406C634.421 477.007 621.095 462.427 598.852 449.597C603.829 438.591 610.312 427.781 616.057 417.13C623.134 404.009 629.961 391.064 637.676 378.289Z"/><path fill="#E86A2F" d="M388.196 378.538C392.135 379.76 424.374 441.701 428.282 449.111C406.213 464.324 393.418 474.304 377.09 496.394C372.009 492.904 366.965 489.36 361.959 485.764C351.507 478.925 341.179 471.898 330.981 464.687C324.499 460.186 316.791 454.617 310.068 450.659C322.319 427.525 364.416 390.156 388.196 378.538Z"/><path fill="#FEAB4D" d="M565.262 759.166C568.698 759.7 588.353 759.698 593.248 759.546C606.873 759.124 625.038 760.278 638.042 759.177L638.068 816.651C638.155 826.817 639.276 842.437 638.047 852.257C628.572 851.731 617.207 852.071 607.611 852.024C593.602 851.956 579.294 851.821 565.331 852.634C564.951 848.23 565.093 841.173 565.065 836.541C564.995 826.269 564.984 815.997 565.031 805.725C565.081 791.721 564.479 772.546 565.262 759.166Z"/><path fill="#E86A2F" d="M392.23 759.197C397.851 759.862 414.073 759.674 420.155 759.593C434.575 759.402 450.719 759.902 464.952 759.188C464.388 778.065 464.817 797.562 464.752 816.486C464.71 828.746 465.189 840.026 464.505 852.402C458.863 852.75 448.322 852.394 442.209 852.405L392.365 852.613C391.101 830.172 392.957 806.023 392.351 783.426C392.15 775.907 391.76 766.466 392.23 759.197Z"/><path fill="#E86A2F" d="M499.098 345.715C500.862 345.462 500.855 345.414 502.713 345.692C504.979 348.191 503.812 416.753 503.928 426.398C483.799 427.956 462.459 432.769 444.297 441.922C440.356 435.312 436.643 427.97 433.038 421.122C424.079 403.623 414.217 386.714 405.522 369.122C436.651 353.503 464.683 348.748 499.098 345.715Z"/><path fill="#E86A2F" d="M522.454 345.215C530.527 346.198 539.179 346.641 547.521 347.684C574.917 351.111 595.922 357.497 620.687 369.158L596.048 415.216L582.276 440.525C569.625 433.44 537.124 425.935 522.316 426.715L522.454 345.215Z"/><path fill="#FEAB4D" d="M565.48 651.991C589.477 651.706 614.021 651.962 638.063 651.95L638.03 712.206C638.028 718.211 638.484 734.779 637.958 739.691L637.094 740.083C613.135 740.589 589.173 739.496 565.49 740.508C564.917 735.128 565.279 719.047 565.277 712.891C565.271 692.946 564.629 671.815 565.48 651.991Z"/><path fill="#E86A2F" d="M392.241 652.208C399.592 652.896 416.646 652.544 424.61 652.473C436.929 652.364 453.044 652.977 465 652.194C464.606 675.902 465.262 699.752 465.041 723.475C464.993 728.701 465.377 734.8 464.85 739.886C441.986 741.187 415.29 740.364 392.146 740.139C392.643 719.195 392.17 698.081 392.378 677.147C392.45 669.898 391.761 658.898 392.241 652.208Z"/><path fill="#E86A2F" d="M412.39 551.186C416.344 553.185 430.767 563.658 434.758 566.8C445.074 574.921 459.973 584.686 469.568 593.141C464.186 609.996 464.006 615.741 464.066 633.149L450.25 633.009L392.245 633.17C392.751 598.522 395.001 582.177 412.39 551.186Z"/><path fill="#FEAB4D" d="M527.746 495.155C562.032 500.469 581.937 510.41 605.581 535.416C595.896 543.349 585.864 552.343 576.356 560.593C568.46 566.951 560.119 575.467 552.206 581.435C540.472 569.891 535.024 568.055 519.557 564.778C521.551 541.101 524.767 518.703 527.746 495.155Z"/><path fill="#FEAB4D" d="M616.186 552.82C620.182 553.569 623.626 563.191 625.203 566.514C635.311 587.819 635.345 610.207 636.011 633.194C617.948 632.677 598.421 633.038 580.25 633.041L565.119 633.116C565.446 616.653 564.849 608.894 559.239 593.078C564.428 588.005 574.993 581.125 581.25 576.698C592.691 568.603 604.429 560.437 616.186 552.82Z"/><path fill="#E86A2F" d="M496.811 496.186C498.473 495.848 499.442 495.814 500.7 496.633C501.921 501.155 502.846 512.059 503.625 517.111C506.063 532.909 507.653 549.711 510.594 565.37C496.06 566.707 491.259 569.886 479.854 578.59L456.605 560.379C445.678 552.099 435.731 543.183 424.342 535.286C442.689 513.563 468.582 499.594 496.811 496.186Z"/></svg>